<?xml version="1.0" standalone="no"?>
<!DOCTYPE svg PUBLIC "-//W3C//DTD SVG 20010904//EN"
 "http://www.w3.org/TR/2001/REC-SVG-20010904/DTD/svg10.dtd">
<svg version="1.0" xmlns="http://www.w3.org/2000/svg"
 width="400.000000pt" height="400.000000pt" viewBox="0 0 400.000000 400.000000"
 preserveAspectRatio="xMidYMid meet">
<metadata>
Created by potrace 1.14, written by Peter Selinger 2001-2017
</metadata>
<g transform="translate(0.000000,400.000000) scale(0.100000,-0.100000)"
fill="#000000" stroke="none">
<path d="M2036 3809 c-14 -11 -26 -25 -26 -31 0 -5 -16 -24 -35 -41 -19 -17
-35 -37 -35 -44 0 -7 -4 -13 -8 -13 -4 0 -18 -20 -30 -44 -20 -42 -22 -44 -46
-33 -14 7 -27 19 -29 28 -2 9 -25 21 -51 29 -47 13 -73 7 -46 -10 25 -16 -16
-12 -58 5 -20 9 -53 20 -72 24 -19 5 -43 12 -52 16 -31 12 -20 -8 48 -88 l66
-78 -23 -27 c-70 -78 -98 -102 -122 -102 -27 0 -52 -23 -42 -39 12 -20 -12
-43 -66 -62 -67 -23 -69 -23 -69 -3 0 14 54 100 71 114 3 3 9 22 13 43 9 47
-9 50 -48 6 -15 -17 -40 -35 -56 -40 -15 -6 -30 -19 -33 -30 -3 -10 -13 -22
-22 -25 -19 -8 -77 51 -106 108 -22 43 -46 49 -74 18 -13 -14 -15 -23 -8 -32
6 -7 14 -28 18 -46 10 -50 55 -122 81 -132 28 -11 45 -41 40 -72 -3 -24 -29
-28 -86 -13 -20 5 -27 2 -35 -17 -8 -17 -20 -24 -49 -26 -21 -2 -43 1 -49 7
-17 17 -47 13 -47 -6 0 -15 -2 -15 -9 -4 -17 26 -41 4 -41 -37 0 -22 -3 -53
-6 -68 -4 -23 1 -38 25 -68 22 -27 31 -49 31 -75 0 -32 -6 -40 -51 -69 -47
-31 -109 -110 -109 -139 0 -9 -14 -13 -42 -13 -60 0 -157 -28 -178 -50 -3 -3
-19 -16 -36 -28 -22 -15 -37 -39 -51 -82 -13 -37 -17 -62 -11 -66 13 -8 96 5
103 17 8 12 102 12 110 -1 3 -5 13 -10 22 -10 9 0 32 -16 50 -36 51 -56 43
-112 -32 -223 -28 -41 -30 -52 -31 -135 0 -86 -2 -93 -33 -137 l-33 -46 31
-43 c37 -51 37 -55 11 -77 -11 -10 -20 -27 -20 -39 0 -35 -25 -49 -52 -30 -30
21 -77 21 -85 -1 -3 -9 4 -35 16 -59 14 -25 20 -50 17 -62 -4 -11 -1 -31 5
-45 10 -21 9 -33 -5 -61 -9 -18 -16 -48 -16 -66 0 -17 -5 -40 -10 -51 -6 -10
-11 -44 -12 -74 -1 -32 -7 -60 -15 -66 -24 -21 -15 -60 23 -95 19 -19 39 -34
44 -34 5 0 7 -17 4 -37 -4 -31 0 -44 21 -67 14 -16 25 -32 25 -36 0 -17 -31
-31 -61 -28 -47 5 -58 -19 -36 -79 9 -26 17 -74 17 -105 0 -64 7 -91 22 -82 7
5 8 -15 4 -58 -6 -53 -4 -67 9 -78 23 -19 62 1 68 37 3 15 9 72 12 125 4 54
10 100 13 102 4 2 8 -32 10 -77 2 -44 5 -84 9 -89 3 -5 27 -7 55 -3 44 6 56 3
109 -25 57 -30 61 -31 84 -16 27 18 27 18 29 58 1 15 -2 24 -6 22 -10 -6 -9
24 1 51 7 17 8 17 14 -8 4 -14 16 -31 27 -37 11 -6 20 -19 20 -30 0 -22 98
-64 116 -49 6 5 13 6 16 3 6 -5 38 69 38 88 0 6 7 16 15 22 10 7 16 29 16 64
2 63 14 76 24 24 13 -68 45 -77 70 -18 14 32 17 29 30 -28 7 -35 13 -30 37 36
29 77 31 107 15 170 -10 39 -13 84 -9 147 4 86 6 90 26 86 11 -3 40 -7 63 -9
55 -6 142 -54 223 -124 54 -47 82 -43 112 16 29 57 55 64 107 28 20 -14 46
-26 57 -26 11 0 35 -11 54 -24 27 -18 40 -22 59 -15 13 5 31 7 41 4 23 -7 65
31 95 88 34 63 33 80 -4 72 -20 -4 -34 -1 -46 12 -17 16 -15 18 55 31 51 9 76
10 83 3 6 -6 20 -11 32 -11 11 0 31 -7 44 -17 l24 -16 -35 -31 c-60 -53 -71
-92 -41 -136 10 -14 16 -33 15 -43 -2 -9 1 -17 7 -17 6 0 8 7 5 15 -11 27 24
28 59 1 19 -14 39 -26 45 -26 6 0 17 19 23 43 16 55 24 63 44 43 22 -21 22
-21 64 16 22 19 38 43 41 62 10 62 101 69 129 11 13 -27 14 -27 27 -10 8 10
14 23 14 27 0 5 10 6 23 3 18 -5 25 1 40 35 9 22 17 48 17 58 0 20 -23 89 -34
99 -3 4 -41 10 -82 13 l-76 5 21 27 c16 20 39 30 91 42 114 26 133 23 177 -30
34 -40 42 -45 69 -41 32 5 74 -14 74 -34 0 -5 -12 -9 -26 -9 -62 0 -88 -50
-36 -72 15 -7 41 -23 58 -35 22 -17 47 -24 85 -26 51 -2 54 -1 57 24 3 22 -5
32 -44 58 -26 17 -53 31 -61 31 -30 0 -11 30 26 40 73 19 74 50 1 64 -42 8
-180 68 -180 79 0 4 12 13 26 19 22 10 41 8 111 -10 l86 -23 38 26 c21 14 43
25 49 25 16 0 12 27 -6 34 -9 3 -62 6 -119 6 -103 0 -155 10 -155 30 0 19 60
135 86 165 l25 30 -6 -41 c-7 -48 11 -72 42 -55 10 5 38 16 63 25 61 22 120
75 120 108 0 29 35 46 44 22 3 -8 12 -14 20 -14 7 0 16 -7 20 -15 3 -9 0 -15
-9 -15 -7 0 -16 -4 -20 -9 -9 -16 57 -41 98 -38 61 5 70 44 16 70 -14 7 -25
23 -27 37 -3 23 -7 25 -42 22 -32 -3 -44 1 -76 30 l-37 35 18 34 c10 19 21 41
25 49 4 9 17 14 32 12 28 -3 61 28 56 54 -2 13 -20 22 -61 32 -48 12 -57 17
-51 31 5 9 10 51 12 94 4 85 6 87 67 57 22 -11 50 -19 62 -20 29 0 47 33 33
60 -16 29 -43 40 -99 40 -44 0 -51 3 -51 19 0 11 13 28 30 37 55 33 49 65 -19
97 -41 20 -46 26 -49 58 -2 27 3 44 21 65 53 64 59 101 26 165 -14 29 -32 46
-60 58 -33 14 -39 20 -39 48 0 31 21 63 42 63 7 0 8 14 4 39 -6 37 -3 42 31
70 28 23 48 31 78 32 109 2 152 43 100 95 -26 26 -30 27 -102 20 -41 -3 -84
-13 -96 -21 -12 -8 -30 -15 -40 -15 -11 0 -31 -13 -46 -29 -30 -33 -94 -71
-116 -71 -36 0 7 106 60 150 19 16 20 74 0 90 -13 10 -13 15 -1 32 22 31 -3
97 -36 98 -15 0 -38 -33 -38 -54 0 -12 -9 -32 -20 -44 l-20 -21 -56 29 c-30
16 -73 35 -95 41 -31 10 -39 17 -39 35 0 27 -34 54 -70 54 -32 0 -47 10 -51
35 -4 16 -12 20 -52 20 -54 1 -95 28 -67 45 8 5 27 10 42 10 32 0 42 12 33 40
-11 36 -39 42 -90 20 -62 -26 -95 -26 -95 0 0 13 -7 20 -20 20 -27 0 -38 -30
-17 -42 25 -14 20 -43 -9 -57 -20 -9 -31 -8 -52 4 -15 8 -40 20 -56 25 -26 10
-28 13 -15 25 8 8 39 23 68 34 53 18 78 42 66 61 -3 6 -16 10 -28 10 -32 0
-129 -39 -153 -61 -11 -10 -26 -19 -33 -19 -7 0 -26 -9 -42 -20 -27 -20 -30
-20 -54 -4 -17 11 -57 19 -112 23 l-85 6 28 31 c41 43 54 69 47 93 -7 27 -23
27 -57 0z m247 -295 c62 -15 4 -34 -105 -34 -143 0 -363 -85 -387 -150 -5 -14
-12 -42 -16 -63 -12 -73 -56 -61 -84 21 l-18 53 29 22 c16 12 51 41 76 64 52
46 109 66 237 83 148 19 203 20 268 4z m577 -74 c0 -24 -41 -28 -60 -5 -7 8
-17 12 -23 8 -6 -3 -7 -1 -3 5 4 7 25 12 47 12 32 0 39 -3 39 -20z m45 -30 c3
-5 1 -10 -4 -10 -6 0 -11 5 -11 10 0 6 2 10 4 10 3 0 8 -4 11 -10z m38 -27
c-7 -2 -19 -2 -25 0 -7 3 -2 5 12 5 14 0 19 -2 13 -5z m-1532 -181 c-6 -2 -11
-15 -11 -28 0 -29 -30 -61 -65 -70 -34 -8 -59 2 -51 22 3 9 6 29 6 45 0 18 5
29 14 29 7 0 19 6 26 14 17 21 52 24 73 7 11 -9 14 -17 8 -19z m-244 -208 c9
-15 20 -49 23 -76 l7 -49 -41 6 c-95 14 -96 15 -96 45 0 20 11 41 35 65 20 19
40 35 45 35 5 0 17 -12 27 -26z m2020 -896 c-3 -8 -6 -5 -6 6 -1 11 2 17 5 13
3 -3 4 -12 1 -19z m103 -56 c0 -10 -7 -28 -16 -40 -8 -12 -14 -30 -13 -40 3
-31 -1 -38 -31 -55 -20 -12 -30 -26 -30 -43 0 -13 -4 -24 -8 -24 -5 0 -14 -12
-21 -26 -6 -15 -14 -24 -18 -21 -3 4 6 30 19 59 21 44 25 64 22 119 l-4 67 37
10 c55 15 63 14 63 -6z m-1900 -747 c7 -8 9 -15 6 -15 -4 0 -14 7 -22 15 -9 8
-11 15 -6 15 5 0 15 -7 22 -15z m750 -105 c0 -5 -7 -10 -16 -10 -8 0 -12 5 -9
10 3 6 10 10 16 10 5 0 9 -4 9 -10z m-1450 -352 c0 -9 -4 -20 -10 -23 -6 -4
-10 9 -10 32 0 28 3 34 10 23 5 -8 10 -23 10 -32z m293 -86 c-3 -12 -9 -22
-14 -22 -12 0 -11 7 3 30 15 24 19 21 11 -8z"/>
<path d="M1678 3673 c6 -2 18 -2 25 0 6 3 1 5 -13 5 -14 0 -19 -2 -12 -5z"/>
<path d="M3304 3519 c-22 -17 -41 -32 -43 -35 -8 -7 45 -43 64 -44 23 0 75 44
75 64 0 15 -32 46 -47 46 -6 0 -28 -14 -49 -31z"/>
<path d="M726 3109 c-38 -11 -62 -34 -86 -83 -23 -49 -25 -59 -8 -54 7 3 23
-1 35 -7 36 -19 100 -3 136 34 27 26 30 34 21 58 -13 37 -61 63 -98 52z"/>
<path d="M3591 2693 c-18 -16 -19 -21 -8 -43 10 -20 20 -25 52 -25 36 0 40 3
40 24 0 17 -10 31 -31 43 -30 18 -32 18 -53 1z"/>
<path d="M3632 1693 c4 -21 33 -25 33 -3 0 8 -8 16 -18 18 -14 3 -18 -1 -15
-15z"/>
<path d="M3574 1647 c-22 -57 50 -116 87 -71 11 13 10 21 -6 50 -14 27 -24 34
-47 34 -16 0 -31 -6 -34 -13z"/>
<path d="M1780 963 c-8 -3 -18 -10 -21 -16 -11 -17 3 -47 22 -47 11 0 19 -7
19 -16 0 -26 25 -10 28 19 3 26 -13 68 -26 66 -4 0 -14 -3 -22 -6z"/>
<path d="M2712 948 c-16 -16 -15 -43 2 -57 18 -15 39 9 34 40 -4 27 -19 34
-36 17z"/>
<path d="M2392 832 c-25 -22 -29 -31 -22 -49 11 -27 51 -31 70 -8 8 9 21 13
32 9 30 -9 49 13 36 42 -6 13 -14 25 -17 25 -52 10 -70 6 -99 -19z"/>
<path d="M1930 789 c0 -5 5 -7 10 -4 6 3 10 8 10 11 0 2 -4 4 -10 4 -5 0 -10
-5 -10 -11z"/>
<path d="M1495 480 c-307 -9 -433 -21 -838 -76 -23 -3 -62 -14 -87 -24 -25
-10 -65 -25 -90 -32 -44 -13 -45 -14 -48 -60 -3 -43 -1 -48 18 -48 11 0 38 -9
59 -20 22 -11 59 -22 83 -26 23 -4 52 -12 63 -18 23 -12 93 -21 344 -41 102
-8 196 -17 210 -19 15 -3 80 -8 146 -11 66 -3 168 -8 227 -11 126 -7 558 11
743 31 72 8 162 17 201 20 40 3 116 15 170 26 55 11 114 22 132 26 17 3 32 9
32 13 0 4 15 10 33 13 101 17 127 34 127 82 0 27 -5 35 -32 46 -18 7 -45 21
-60 31 -14 10 -43 18 -63 18 -20 0 -64 7 -96 15 -33 9 -64 13 -69 10 -5 -3
-30 0 -57 6 -69 16 -254 38 -269 32 -7 -3 -78 0 -156 6 -214 16 -444 19 -723
11z"/>
</g>
</svg>
